<?xml version="1.0" encoding="UTF-8" standalone="no"?>
<!-- Created with Inkscape (http://www.inkscape.org/) -->

<svg
   width="400"
   height="200"
   viewBox="0 0 105.83333 52.916667"
   version="1.1"
   id="svg5"
   xml:space="preserve"
   xmlns="http://www.w3.org/2000/svg"
   xmlns:svg="http://www.w3.org/2000/svg"><defs
     id="defs2"><style
       id="style309">.cls-1{fill:#018bff;}</style><style
       id="style4362">.cls-1{fill:#018bff;}</style></defs><g
     id="layer1"><g
       id="g4391"
       transform="matrix(0.57637367,0,0,0.57637367,18.041938,14.786627)"><g
         id="g4400"
         transform="translate(4.5904827,1.6066689)"><path
           d="m 20.44,7.54 c -5.92,0 -9.9,3.41 -9.9,10.12 v 4.09 a 5.51,5.51 0 0 1 1.93,-0.45 3.76,3.76 0 0 1 1.94,0.45 v -4.09 c 0,-4.32 2.39,-6.6 6,-6.6 3.61,0 6,2.28 6,6.6 v 10.46 h 3.87 V 17.66 c 0,-6.71 -4,-10.12 -9.89,-10.12"
           transform="translate(-0.19,-0.03)"
           id="path4366" /><path
           d="m 32.38,18.11 c 0,-6.14 4.43,-10.57 10.8,-10.57 6.37,0 10.69,4.46 10.69,10.57 v 1.37 h -17.4 a 6.45,6.45 0 0 0 6.71,5.57 c 2.62,0 4.44,-0.79 5.58,-2.5 H 53 c -1.59,3.75 -5.23,6.14 -9.89,6.14 -6.26,0 -10.69,-4.43 -10.69,-10.58 m 17.51,-2 a 6.52,6.52 0 0 0 -6.71,-5 6.39,6.39 0 0 0 -6.59,5 z"
           transform="translate(-0.19,-0.03)"
           id="path4368" /><path
           d="M 56,18.11 C 56,12 60.47,7.54 66.84,7.54 a 10.4,10.4 0 0 1 10.81,10.57 c 0,6.15 -4.44,10.58 -10.81,10.58 C 60.47,28.69 56,24.26 56,18.11 m 17.62,0 a 6.56,6.56 0 0 0 -6.93,-6.93 6.68,6.68 0 0 0 -6.94,6.93 6.57,6.57 0 0 0 6.94,6.94 c 4.21,0.12 6.93,-2.84 6.93,-6.94"
           transform="translate(-0.19,-0.03)"
           id="path4370" /><path
           d="m 99.71,32.22 h 0.46 c 2.5,0 3.41,-1.14 3.41,-4 V 8.9 h 3.87 V 28 c 0,5 -1.94,7.51 -6.94,7.51 h -0.8 z"
           id="path4372"
           transform="translate(-0.19,-0.03)" /><path
           d="m 97.78,30.06 h -3.87 v -4.78 h -9.78 a 4.82,4.82 0 0 1 -4.44,-2.5 4.19,4.19 0 0 1 0.57,-4.55 L 89,6.74 A 4.8,4.8 0 0 1 94.48,5 a 4.75,4.75 0 0 1 3.3,4.55 v 12.32 h 2.27 v 3.41 H 97.78 Z M 83.45,20.39 a 0.83,0.83 0 0 0 -0.23,0.57 1,1 0 0 0 1,1 h 9.67 V 9.58 c 0,-0.68 -0.45,-0.91 -0.68,-0.91 h -0.34 a 1,1 0 0 0 -0.8,0.46 z"
           transform="translate(-0.19,-0.03)"
           id="path4374" /><path
           class="cls-1"
           d="m 105.51,0 a 3.3,3.3 0 1 0 3.3,3.3 3.3,3.3 0 0 0 -3.3,-3.3"
           transform="translate(-0.19,-0.03)"
           id="path4376" /><path
           class="cls-1"
           d="m 12.25,23.23 a 2.71,2.71 0 0 0 -1.94,0.68 L 6.67,21.53 a 2.41,2.41 0 0 0 0.12,-0.91 3.3,3.3 0 1 0 -3.3,3.29 2.65,2.65 0 0 0 1.93,-0.68 l 3.64,2.5 a 2.61,2.61 0 0 0 -0.11,0.91 2.56,2.56 0 0 0 0.11,0.91 l -3.64,2.51 a 3.07,3.07 0 0 0 -1.93,-0.69 3.3,3.3 0 1 0 3.3,3.3 2.38,2.38 0 0 0 -0.12,-0.91 l 3.64,-2.5 a 3.06,3.06 0 0 0 1.94,0.68 3.29,3.29 0 0 0 3.29,-3.3 3.39,3.39 0 0 0 -3.29,-3.41"
           transform="translate(-0.19,-0.03)"
           id="path4378" /></g></g></g></svg>
